<svg xmlns="http://www.w3.org/2000/svg" viewBox="0 0 1080 1080" width="1080" height="1080"><defs></defs><g>
<g>
	<g>
		<path d="M0,270C0,121.01811 121.01811,0 270,0 L 810,0 C958.98189,0 1080,121.01811 1080,270 L 1080,810 C1080,958.98189 958.98189,1080 810,1080 L 270,1080 C121.01811,1080 0,958.98189 0,810 L 0,270 Z" transform="" fill="#19191e"/>
		<path d="M246.965622,404.892399C246.965622,404.892399 278.144299,454.145672 278.144299,454.145672 C278.144299,454.145672 131.514143,539.774068 131.514143,539.774068 C131.514143,539.774068 278.144299,623.820936 278.144299,623.820936 C278.144299,623.820936 245.835959,674.655736 245.835959,674.655736 C245.835959,674.655736 69.834586,565.304434 69.834586,565.304434 C69.834586,565.304434 69.834586,514.695566 69.834586,514.695566 C69.834586,514.695566 246.965622,404.892399 246.965622,404.892399 C246.965622,404.892399 246.965622,404.892399 246.965622,404.892399 ZM540.451865,441.719387C540.451865,441.719387 460.47178,681.659642 460.47178,681.659642 C460.47178,681.659642 376.424911,681.659642 376.424911,681.659642 C376.424911,681.659642 295.541097,441.719387 295.541097,441.719387 C295.541097,441.719387 372.58406,441.719387 372.58406,441.719387 C372.58406,441.719387 419.352076,626.98399 419.352076,626.98399 C419.352076,626.98399 468.153483,441.719387 468.153483,441.719387 C468.153483,441.719387 540.451865,441.719387 540.451865,441.719387 C540.451865,441.719387 540.451865,441.719387 540.451865,441.719387 ZM766.158375,363.32083C766.158375,363.32083 1010.165414,514.243702 1010.165414,514.243702 C1010.165414,514.243702 1010.165414,565.304434 1010.165414,565.304434 C1010.165414,565.304434 834.164041,674.655736 834.164041,674.655736 C834.164041,674.655736 801.855701,626.080261 801.855701,626.080261 C801.855701,626.080261 948.711789,539.774068 948.711789,539.774068 C948.711789,539.774068 734.527833,414.607494 734.527833,414.607494 C734.527833,414.607494 766.158375,363.32083 766.158375,363.32083 C766.158375,363.32083 766.158375,363.32083 766.158375,363.32083 ZM613.202111,732.268509C613.202111,732.268509 557.396798,706.738143 557.396798,706.738143 C557.396798,706.738143 747.405983,312.48603 747.405983,312.48603 C747.405983,312.48603 802.759431,338.016396 802.759431,338.016396 C802.759431,338.016396 613.202111,732.268509 613.202111,732.268509 C613.202111,732.268509 613.202111,732.268509 613.202111,732.268509 Z" transform="matrix(1,0,0,1,0,0)" fill="#f7f7f9"/>
	</g>
</g></g></svg>
